<?xml version="1.0" standalone="no"?><!DOCTYPE svg PUBLIC "-//W3C//DTD SVG 1.1//EN" "http://www.w3.org/Graphics/SVG/1.1/DTD/svg11.dtd"><svg t="1607091247072" class="icon" viewBox="0 0 1024 1024" version="1.1" xmlns="http://www.w3.org/2000/svg" p-id="14085" xmlns:xlink="http://www.w3.org/1999/xlink" width="128" height="128"><defs><style type="text/css"></style></defs><path d="M469.85115 6.406324c-45.159483 18.063793-69.24454 45.159483-66.233908 78.276437 3.010632 18.063793 0 18.063793-21.074426 30.106322-33.116954 18.063793-84.297701 75.265804-102.361494 114.404022-36.127586 78.276437-42.14885 165.58477-12.042528 237.839942 48.170115 123.435919 165.58477 195.691091 286.010056 177.627299 57.202011-9.031897 105.372126-33.116954 147.520977-75.265805 57.202011-57.202011 84.297701-126.446551 84.297701-204.722988 0-57.202011-6.021264-87.308333-30.106322-135.478448-21.074425-42.14885-69.24454-96.34023-105.372126-114.404022-18.063793-9.031897-18.063793-12.042529-15.053161-30.106322 3.010632-24.085057-15.053161-51.180747-45.159482-69.24454-30.106322-15.053161-90.318965-21.074425-120.425287-9.031897m57.202011 298.052586c87.308333 18.063793 162.574138 33.116954 168.595402 36.127586 9.031897 6.021264 12.042529 9.031897 9.031896 39.138218-3.010632 51.180747-21.074425 90.318965-54.191379 126.446552-42.14885 45.159483-69.24454 57.202011-129.457183 57.202011-45.159483 0-54.191379-3.010632-81.287069-15.053161-57.202011-27.09569-99.350862-90.318965-111.393391-162.574138-9.031897-54.191379 9.031897-117.414655 33.116954-117.414654 3.010632 6.021264 81.287069 21.074425 165.58477 36.127586M232.011208 659.713507c-63.223276 24.085057-108.382758 78.276437-120.425288 141.499712-3.010632 15.053161-6.021264 57.202011-6.021264 96.34023 0 99.350862 15.053161 123.435919 87.308333 126.446551h42.148851l231.818677-228.808045-60.212643-72.255173-60.212644-72.255172H301.255748c-30.106322-3.010632-51.180747 0-69.24454 9.031897m243.861206 174.616666l-192.680459 186.659195h292.031321c322.137643 0 310.095114 0 331.169539-33.116954 15.053161-24.085057 18.063793-117.414655 6.021265-174.616666-12.042529-51.180747-24.085057-81.287069-57.202012-111.393391-39.138218-39.138218-72.255172-51.180747-135.478448-54.191379h-54.191379l-189.669827 186.659195z" p-id="14086"></path></svg>