<?xml version="1.0" standalone="no"?><!DOCTYPE svg PUBLIC "-//W3C//DTD SVG 1.1//EN" "http://www.w3.org/Graphics/SVG/1.1/DTD/svg11.dtd"><svg t="1608435058861" class="icon" viewBox="0 0 1024 1024" version="1.1" xmlns="http://www.w3.org/2000/svg" p-id="1089" xmlns:xlink="http://www.w3.org/1999/xlink" width="128" height="128"><defs><style type="text/css"></style></defs><path d="M868.9211923 95.57333333h-152.91733333c-7.16891022-31.28858548-36.06785897-55.40947437-69.86016238-55.40947436h-75.77539318C560.69688889 16.04297008 537.82603852 0.45511111 511.42959408 0.45511111c-26.51052563 0-49.37894875 15.70194015-58.93628208 39.70874786H375.46666667c-33.67822222 0-62.57838459 24.12088889-69.86016237 55.40947436h-152.91733333c-39.70753422 0-69.85894875 32.54105125-69.85894875 72.24858549v777.55794015c0 39.70753422 31.28858548 72.24858548 69.86016237 72.24858548h714.97955556c39.70753422 0 73.38575645-32.54105125 73.38575644-72.24858548V167.82191882c1.25246578-39.70874785-32.42575645-72.24858548-72.13450429-72.24858549z m-356.352 34.92947437c32.53983763 0 57.79911111 26.51052563 57.79911111 57.79911112 0 32.54105125-26.51052563 57.79911111-57.79911111 57.7991111-32.54105125 0-57.79911111-26.51052563-57.79911112-57.7991111s25.37214103-57.79911111 57.79911112-57.79911112z m220.27377778 598.24416238c0 14.44947437-12.06105125 26.509312-26.51052563 26.509312H318.80472652c-14.44947437 0-26.509312-12.05983763-26.509312-26.509312v-24.1208889c0-14.450688 12.05983763-26.51052563 26.51052563-26.51052563h387.5265043c14.44947437 0 26.51052563 12.06105125 26.51052563 26.51052563v24.1208889z m0-244.39466667c0 14.44947437-12.06105125 26.51052563-26.51052563 26.51052562H318.80472652c-14.44947437 0-26.509312-12.06105125-26.509312-26.51052562v-24.12088889c0-14.44947437 12.05983763-26.51052563 26.51052563-26.51052563h387.5265043c14.44947437 0 26.51052563 12.06105125 26.51052563 26.51052563v24.12088889z" p-id="1090"></path></svg>