<?xml version="1.0" standalone="no"?><!DOCTYPE svg PUBLIC "-//W3C//DTD SVG 1.1//EN" "http://www.w3.org/Graphics/SVG/1.1/DTD/svg11.dtd"><svg t="1607090343122" class="icon" viewBox="0 0 1024 1024" version="1.1" xmlns="http://www.w3.org/2000/svg" p-id="9439" xmlns:xlink="http://www.w3.org/1999/xlink" width="128" height="128"><defs><style type="text/css"></style></defs><path d="M408.7872 123.76832c75.1488-10.7136 137.21472-10.33856 205.952 0 47.00544 10.05696 94.64192 17.93408 140.87424 30.92224 34.2272 9.61152 58.96064 33.10208 71.19872 68.97152 19.4112 56.68736 39.78368 113.04576 61.18784 168.95872 3.65696 9.35424 15.49568 23.13984 22.1312 22.38848 45.05856-5.13408 66.2528 20.20864 80.01408 57.67168 3.30496 11.46368 1.47584 22.97472 0 30.57024-18.77888 5.25184-37.53344 10.45632-54.78912 15.26272 2.41536 19.73888 6.8224 39.78368 6.91584 59.80544 0.77312 91.40608 1.312 182.83776-0.4928 274.2208-0.32768 16.31616-9.63456 41.68192-16.12928 45.80864-6.14272 10.66624-142.86592 10.15168-153.5104 2.74304-35.49312-23.32672-13.64352-62.47808-25.03808-94.24384H282.60096c-8.99072 33.59488-14.34752 90.02368-25.1904 94.24384-23.64288 9.21344-150.39232 9.5424-157.46048 0-9.6-6.86848-16.11776-34.5792-17.38368-52.34944-2.62656-38.49344-1.1136-77.29408-0.72704-115.97568 0.70272-71.78368 1.77024-143.56864 2.69568-215.8464-13.30432-3.54048-32.25856-8.6272-51.2-13.69088-1.03168-6.89152-2.40256-15.28448 0-24.47488 13.16352-39.57376 32.41088-70.09664 81.74848-63.744 5.95456 0.77312 16.94976-12.09728 20.20864-20.74752 16.85632-44.68352 34.94272-89.2736 46.99264-135.38688 20.1856-77.50528 75.53536-108.6848 146.1952-122.44736 26.5984-5.13408 53.55776-8.51072 80.3072-12.66048zM196.67968 429.89696c213.4912 44.68352 418.10688 45.73824 628.02304 0-17.62944-54.95168-35.30624-103.76192-48.62208-153.72032-11.488-42.87872-38.91584-63.97696-79.7568-65.8304-99.5648-4.5248-199.1424-8.1344-298.73024-8.88448-32.78592-0.25856-66.06464 7.59552-98.24128 15.35616-13.26848 3.21152-30.72256 13.4336-35.24736 24.94464-23.74912 60.0384-44.00384 121.55392-67.42528 188.1344z m40.98048 233.5936c0.0704-1.1712-0.04736 1.14816 0 0 17.07904 0 35.03744-0.60928 51.2832-4.45312 11.79136-2.7904 26.74944-12.47232 30.48832-22.71744 2.62528-7.2896-8.68608-25.95072-18.06336-30.336-39.01056-18.30912-79.07584-34.88384-119.95008-48.45696-20.36096-6.77504-43.04256-5.48608-49.6064 23.8656-9.57696 42.9504-0.6336 66.88512 31.12192 73.58976 24.42752 5.1328 49.77024 5.85856 74.7264 8.50816z m553.1904-0.11648c22.03648-2.69568 49.3952-3.68128 75.5584-9.84576 35.77472-8.32384 28.20224-38.848 27.38304-64.72832-0.704-22.1312-14.27712-38.77632-33.99424-32.54016-49.2544 15.4496-98.15936 33.66528-144.52992 56.4288-21.28768 10.48064-13.66912 39.36256 10.54848 44.73088 19.4112 4.26496 39.85536 3.84384 65.03424 5.95456z" p-id="9440"></path></svg>