<?xml version="1.0" standalone="no"?><!DOCTYPE svg PUBLIC "-//W3C//DTD SVG 1.1//EN" "http://www.w3.org/Graphics/SVG/1.1/DTD/svg11.dtd"><svg t="1608358001698" class="icon" viewBox="0 0 1102 1024" version="1.1" xmlns="http://www.w3.org/2000/svg" p-id="1029" xmlns:xlink="http://www.w3.org/1999/xlink" width="137.75" height="128"><defs><style type="text/css"></style></defs><path d="M803.06401737 391.7045888zM369.47171388 930.02952619c-75.19092533 0-153.48183833-73.1265683-153.48183833-151.82897184V106.42977897h-5.37147079c-70.44083291 0.61999753-128.07298634 63.41787648-128.07298634 131.79297152v661.64783129c0 68.16796891 62.38362671 132.41158821 132.82445961 132.4115882h499.07729867c62.38362671 0 118.98429203-44.41198339 130.75872174-102.04551767H369.47171388z m0 0" p-id="1030"></path><path d="M781.37376972-25.36319255c-4.13147574 0-399.09475721-1.03286894-399.09475721-1.03286893-70.44083291 0-132.82584045 56.18779392-132.82584045 124.35714369l-0.61999752 7.84869923v661.6478313c0 68.37509503 62.38500754 132.41296906 132.82584045 132.41296904l465.81836661-0.61999752h41.31475741c67.13509998-4.75009243 124.97437952-66.72222857 124.97437954-131.79297152V238.84274801L781.37376972-25.36319255z m0 693.8725136H481.84592091c-18.59164084 0-33.25755122-14.87165566-33.25755122-32.84329899s14.87165566-32.84467982 33.25755122-32.84467982h299.52784881c18.59164084 0 33.25893205 14.87165566 33.25893205 32.84467982s-14.87303651 32.84467982-33.25893205 32.84467983z m0-165.0491419H481.84592091c-18.59164084 0-33.25755122-14.87303651-33.25755122-32.84467983s14.87165566-32.84467982 33.25755122-32.84467982h299.52784881c18.59164084 0 33.25893205 14.87165566 33.25893205 32.84467982s-14.87303651 32.84467982-33.25893205 32.84467983zM847.89163385 238.84136717c-35.52903438 0-66.72222857-64.65787154-66.72222858-98.94829169v-98.9482917L947.2514161 239.46274554h-99.56828923v-0.61861669z m0 0" p-id="1031"></path></svg>