<?xml version="1.0" standalone="no"?><!DOCTYPE svg PUBLIC "-//W3C//DTD SVG 1.1//EN" "http://www.w3.org/Graphics/SVG/1.1/DTD/svg11.dtd"><svg t="1608385653664" class="icon" viewBox="0 0 1024 1024" version="1.1" xmlns="http://www.w3.org/2000/svg" p-id="1059" xmlns:xlink="http://www.w3.org/1999/xlink" width="128" height="128"><defs><style type="text/css"></style></defs><path d="M933.4951845 325.90257152L858.19673031 325.90257152c-0.11642994-178.64943275-145.49846016-323.96509867-324.17001472-323.96509867-178.64943275 0-324.05707776 145.31566592-324.12693504 323.96509867L90.50248761 325.90257152c-29.08641849 0-52.68435058 23.59909603-52.68435058 52.6622299l94.58150855 590.81104612c0 29.11086933 23.57581027 52.68667961 52.68435058 52.68667961l653.82618681 0c29.11203328 0 52.66805077-23.57581027 52.66805077-52.68667961L986.17953507 378.56480142C986.17953507 349.50166869 962.58043904 325.90257152 933.4951845 325.90257152zM534.02671559 64.97590045c143.86961067 0 260.99303651 117.03377465 261.08385166 260.92550712L272.94053603 325.90140757C273.03251513 182.00967509 390.10936832 64.97590045 534.02671559 64.97590045zM219.38179982 505.83622201c-24.65511197 0-44.65187954-19.97231787-44.65187953-44.65071559 0-24.65511197 19.99560363-44.65071559 44.65187953-44.65071559 24.70051954 0 44.67283741 19.99443854 44.67283741 44.65071559C264.05463609 485.86390414 244.08348331 505.83622201 219.38179982 505.83622201zM735.495168 777.66535168c-61.59586531 61.59470137-142.58539406 92.4007845-223.48527047 92.4007845-80.96857088 0-161.88940515-30.76067555-223.50622834-92.4007845-12.30310627-12.32639203-12.30310627-32.25330119 0-44.58085717 12.30543417-12.32871993 32.27775203-12.32871993 44.60647196 0 98.59949113 98.60065507 259.13598521 98.69263417 357.77855488 0 12.30659925-12.32871993 32.27775203-12.32871993 44.60763592 0C747.79710919 745.41205049 747.79710919 765.38436835 735.495168 777.66535168zM804.57279261 505.83622201c-24.65976889 0-44.63208675-19.97231787-44.63208676-44.65071559 0-24.65511197 19.97231787-44.65071559 44.63208676-44.65071559 24.67490475 0 44.71824384 19.99443854 44.71824384 44.65071559C849.29103758 485.86390414 829.24769849 505.83622201 804.57279261 505.83622201z" p-id="1060"></path></svg>