<?xml version="1.0" standalone="no"?><!DOCTYPE svg PUBLIC "-//W3C//DTD SVG 1.1//EN" "http://www.w3.org/Graphics/SVG/1.1/DTD/svg11.dtd"><svg t="1608355041450" class="icon" viewBox="0 0 1024 1024" version="1.1" xmlns="http://www.w3.org/2000/svg" p-id="1286" xmlns:xlink="http://www.w3.org/1999/xlink" width="128" height="128"><defs><style type="text/css"></style></defs><path d="M934.4 627.2C921.6 631.46666667 908.8 631.46666667 896 631.46666667c-55.46666667 0-106.66666667-34.13333333-128-89.6-21.33333333 51.2-72.53333333 89.6-128 89.6s-106.66666667-34.13333333-128-89.6c-21.33333333 51.2-72.53333333 89.6-128 89.6s-106.66666667-34.13333333-128-89.6c-21.33333333 51.2-72.53333333 89.6-128 89.6-12.8 0-25.6 0-38.4-4.26666667v290.13333333c0 25.6 29.86666667 59.73333333 55.46666667 59.73333334h738.13333333c25.6 0 55.46666667-34.13333333 55.46666667-59.73333334v-290.13333333z" p-id="1287"></path><path d="M1024 409.6l-89.6-234.66666667h-844.8L0 409.6c0 72.53333333 55.46666667 128 128 128S256 482.13333333 256 409.6c0 46.93333333 25.6 89.6 64 110.93333333s89.6 21.33333333 128 0S512 456.53333333 512 409.6c0 46.93333333 21.33333333 89.6 64 115.2 38.4 25.6 89.6 25.6 128 0C742.4 503.46666667 763.73333333 460.8 768 418.13333333V409.6v8.53333333c0 42.66666667 25.6 85.33333333 64 106.66666667 38.4 25.6 89.6 25.6 132.26666667 0 38.4-25.6 59.73333333-68.26666667 59.73333333-115.2zM853.33333333 128H170.66666667c-25.6 0-42.66666667-17.06666667-42.66666667-42.66666667 0-21.33333333 17.06666667-42.66666667 42.66666667-42.66666666h682.66666666c21.33333333 0 42.66666667 17.06666667 42.66666667 42.66666666s-17.06666667 42.66666667-42.66666667 42.66666667z"  p-id="1288"></path></svg>
