<?xml version="1.0" standalone="no"?><!DOCTYPE svg PUBLIC "-//W3C//DTD SVG 1.1//EN" "http://www.w3.org/Graphics/SVG/1.1/DTD/svg11.dtd"><svg t="1607091534551" class="icon" viewBox="0 0 1024 1024" version="1.1" xmlns="http://www.w3.org/2000/svg" p-id="967" xmlns:xlink="http://www.w3.org/1999/xlink" width="128" height="128"><defs><style type="text/css"></style></defs><path d="M1031.48068799 680.16710995c0 83.18004364 1.98458832 170.25004172-1.26550513 257.11487742-0.90596278 24.28022821-15.26528235 45.59271454-50.10831313 45.43630467-292.30323067-1.25331663-584.61661843-0.66017516-876.92188207-0.77189694-35.45445502-0.02437546-86.65358065-52.38134732-86.67592473-88.44519514-0.11172177-193.44351868-0.11172177-386.87891327 0.00406285-580.32243197 0.01624979-36.00290843 51.38600522-88.12018533 86.99077742-88.13643513 282.27060025-0.11781603 564.55135603-0.095472 846.82195473-0.02843828 34.62974432 0.01218852 80.2468343 41.68650875 80.90700947 76.13140176 1.14362626 58.57480562 0.3128213 117.1943009 0.3128213 181.91381388h-245.19922339c-63.50276037 0-107.85434521 43.90469773-107.48464573 106.41008462 0.23563209 41.25993425 40.89226777 82.32892448 83.11504138 82.72299942 87.38281938 0.80439808 174.76157748 0.97299646 262.14439684 1.53363678 1.05627994 0 2.09631009 1.74895623 7.35943019 6.44127891zM897.6885675 181.30826495H382.6666015c-1.14768911-3.39431639-3.5669776-7.57271666-2.69351441-8.43399292 105.18926911-104.73628615 215.31867833-200.36012459 380.1471571-164.10126989 28.12346313 6.18127138 55.7858192 25.1719726 78.09567903 44.60752954 36.58183151 31.85903914 46.87243805 78.14849279 59.47264428 127.92773327z" p-id="968"></path><path d="M770.32718861 621.71271154c-36.98060223 4.58758331-52.94097171-18.33319163-51.92404985-45.99961081 1.03977536-28.22248932 19.41486353-44.72940814 53.85315739-43.66868377 33.60037754 1.03977536 48.22579726 19.47770761 47.96490156 45.50638331-0.28184471 28.5195682-16.38884845 50.94521118-49.8940091 44.16191127z" p-id="969"></path></svg>